# xmcd
#
# Track frame offsets: 
#        150
#        13365
#        25984
#        38003
#        50386
#        62082
#        73651
#        86184
#        98826
#        110743
#        120696
#        131643
#        143457
#        155843
#        167741
#        181075
#        193505
#        206801
#        219599
#        237157
#        249950
#        262862
#        274013
#        287251
#        299738
#        312125
#
# Disc length: 4322 seconds
#
# Revision: 0
# Processed by: cddbd v1.5.2PL0 Copyright (c) Steve Scherf et al.
# Submitted via: ExactAudioCopy v0.99pb5
#
DISCID=8210e01a
DTITLE=Hank Williams - Best Selection SHM CD
DYEAR=2009
DGENRE=Country
TTITLE0=JAMBALAYA
TTITLE1=I'M SO LONESOME I COULD CRY
TTITLE2=TAKE THESE CHAINS FROM MY HEART
TTITLE3=YOUR  CHEATIN' HEART
TTITLE4=KAW-LIGA
TTITLE5=MY BUCKETS GOT A HOLE IN IT
TTITLE6=COLD COLD HEART
TTITLE7=I SAW THE LIGHT
TTITLE8=LONG GONE LONESOME BLUES
TTITLE9=HONKY TONK BLUES
TTITLE10=I CAN'T HELP IT
TTITLE11=A MANSION ON THE HILL
TTITLE12=LOVESICK BLUES
TTITLE13=YOU WIN AGAIN
TTITLE14=HEY GOOD LOOKIN'
TTITLE15=HALF AS MUCH
TTITLE16=WEDDING BELLS
TTITLE17=I DON'T CARE
TTITLE18=COOL WATER
TTITLE19=PAN AMERICAN
TTITLE20=I CAN''T GET YOU OFF MY MIND
TTITLE21=WEARY BLUES
TTITLE22=MIND YOUR OWN BUSINESS
TTITLE23=I WON'T BE HOME ANYMORE
TTITLE24=HONKY TONKIN'
TTITLE25=LOST HIGHWAY
EXTD=
EXTT0=
EXTT1=
EXTT2=
EXTT3=
EXTT4=
EXTT5=
EXTT6=
EXTT7=
EXTT8=
EXTT9=
EXTT10=
EXTT11=
EXTT12=
EXTT13=
EXTT14=
EXTT15=
EXTT16=
EXTT17=
EXTT18=
EXTT19=
EXTT20=
EXTT21=
EXTT22=
EXTT23=
EXTT24=
EXTT25=
PLAYORDER=
